<svg xmlns="http://www.w3.org/2000/svg" xmlns:xlink="http://www.w3.org/1999/xlink" width="1249" height="907" viewBox="-50 -50 1249 907"><title>New Schematic 2</title><style type="text/css">
path, polyline, polygon {stroke-linejoin:round;}
path, polyline, polygon, line {stroke-linecap:round;}
rect, circle, ellipse, polyline, line, polygon, path {shape-rendering:crispEdges;}
</style>
<rect x="-50" y="-50" width="1249" height="907" fill="#FFFFFF" stroke="none"/><g><g><g display="none"><text x="572.640625" y="-3" fill="#000080" font-family="Arial" font-size="7pt" font-weight="" font-style="" dominant-baseline="" text-anchor="start">NO</text></g><g display="none"><text x="572.6484375" y="-13.703125" fill="#000080" font-family="Arial" font-size="7pt" font-weight="" font-style="" dominant-baseline="" text-anchor="start">.</text></g><path d="M 206 10 L 206 0 M 206 796 L 206 806 M 402 10 L 402 0 M 402 796 L 402 806 M 598 10 L 598 0 M 598 796 L 598 806 M 794 10 L 794 0 M 794 796 L 794 806 M 990 10 L 990 0 M 990 796 L 990 806 M 10 206 L 0 206 M 1139 206 L 1149 206 M 10 402 L 0 402 M 1139 402 L 1149 402 M 10 598 L 0 598 M 1139 598 L 1149 598 M 10 794 L 0 794 M 1139 794 L 1149 794" stroke="#880000" stroke-width="1" fill="none"/><g><text x="1.5" y="108" fill="#880000" font-family="Verdana" font-size="7pt" font-weight="" font-style="" dominant-baseline="" text-anchor="start" type="comment">A</text></g><g><text x="1140.5" y="108" fill="#880000" font-family="Verdana" font-size="7pt" font-weight="" font-style="" dominant-baseline="" text-anchor="start" type="comment">A</text></g><g><text x="1.5" y="304" fill="#880000" font-family="Verdana" font-size="7pt" font-weight="" font-style="" dominant-baseline="" text-anchor="start" type="comment">B</text></g><g><text x="1140.5" y="304" fill="#880000" font-family="Verdana" font-size="7pt" font-weight="" font-style="" dominant-baseline="" text-anchor="start" type="comment">B</text></g><g><text x="1.5" y="500" fill="#880000" font-family="Verdana" font-size="7pt" font-weight="" font-style="" dominant-baseline="" text-anchor="start" type="comment">C</text></g><g><text x="1140.5" y="500" fill="#880000" font-family="Verdana" font-size="7pt" font-weight="" font-style="" dominant-baseline="" text-anchor="start" type="comment">C</text></g><g><text x="1.5" y="696" fill="#880000" font-family="Verdana" font-size="7pt" font-weight="" font-style="" dominant-baseline="" text-anchor="start" type="comment">D</text></g><g><text x="1140.5" y="696" fill="#880000" font-family="Verdana" font-size="7pt" font-weight="" font-style="" dominant-baseline="" text-anchor="start" type="comment">D</text></g><g><text x="108" y="8.5" fill="#880000" font-family="Verdana" font-size="7pt" font-weight="" font-style="" dominant-baseline="" text-anchor="start" type="comment">1</text></g><g><text x="108" y="804.5" fill="#880000" font-family="Verdana" font-size="7pt" font-weight="" font-style="" dominant-baseline="" text-anchor="start" type="comment">1</text></g><g><text x="304" y="8.5" fill="#880000" font-family="Verdana" font-size="7pt" font-weight="" font-style="" dominant-baseline="" text-anchor="start" type="comment">2</text></g><g><text x="304" y="804.5" fill="#880000" font-family="Verdana" font-size="7pt" font-weight="" font-style="" dominant-baseline="" text-anchor="start" type="comment">2</text></g><g><text x="500" y="8.5" fill="#880000" font-family="Verdana" font-size="7pt" font-weight="" font-style="" dominant-baseline="" text-anchor="start" type="comment">3</text></g><g><text x="500" y="804.5" fill="#880000" font-family="Verdana" font-size="7pt" font-weight="" font-style="" dominant-baseline="" text-anchor="start" type="comment">3</text></g><g><text x="696" y="8.5" fill="#880000" font-family="Verdana" font-size="7pt" font-weight="" font-style="" dominant-baseline="" text-anchor="start" type="comment">4</text></g><g><text x="696" y="804.5" fill="#880000" font-family="Verdana" font-size="7pt" font-weight="" font-style="" dominant-baseline="" text-anchor="start" type="comment">4</text></g><g><text x="892" y="8.5" fill="#880000" font-family="Verdana" font-size="7pt" font-weight="" font-style="" dominant-baseline="" text-anchor="start" type="comment">5</text></g><g><text x="892" y="804.5" fill="#880000" font-family="Verdana" font-size="7pt" font-weight="" font-style="" dominant-baseline="" text-anchor="start" type="comment">5</text></g><rect x="10" y="10" width="1129" height="786" stroke="#880000" stroke-width="1" fill="none"/><rect x="0" y="0" width="1149" height="806" stroke="#880000" stroke-width="1" fill="none"/><rect x="739" y="716" width="400" height="80" stroke="#880000" stroke-width="1" fill="none"/><polyline points="739 756 1139 756" stroke="#880000" stroke-width="1" fill="none" stroke-linecap="round"/><polyline points="739 776 1139 776" stroke="#880000" stroke-width="1" fill="none" stroke-linecap="round"/><polyline points="1059 716 1059 756" stroke="#880000" stroke-width="1" fill="none" stroke-linecap="round"/><polyline points="1019 756 1019 776" stroke="#880000" stroke-width="1" fill="none" stroke-linecap="round"/><polyline points="934 776 934 796" stroke="#880000" stroke-width="1" fill="none" stroke-linecap="round"/><g><text x="744" y="728" fill="#880000" font-family="Verdana" font-size="8pt" font-weight="" font-style="" dominant-baseline="" text-anchor="start" type="comment">TITLE:</text></g><g><text x="749" y="746" fill="#0000FF" font-family="Verdana" font-size="10pt" font-weight="" font-style="" dominant-baseline="" text-anchor="start" type="comment">New Schematic</text></g><g><text x="1065" y="742" fill="#880000" font-family="Verdana" font-size="8pt" font-weight="" font-style="" dominant-baseline="" text-anchor="start" type="comment">REV:</text></g><g><text x="1096" y="743" fill="#0000FF" font-family="Verdana" font-size="9pt" font-weight="" font-style="" dominant-baseline="" text-anchor="start" type="comment">1.0</text></g><g><text x="744" y="771" fill="#880000" font-family="Verdana" font-size="8pt" font-weight="" font-style="" dominant-baseline="" text-anchor="start" type="comment">Date:</text></g><g><text x="794" y="771" fill="#0000FF" font-family="Verdana" font-size="9pt" font-weight="" font-style="" dominant-baseline="" text-anchor="start" type="comment">2017-11-15</text></g><g><text x="1024" y="771" fill="#880000" font-family="Verdana" font-size="8pt" font-weight="" font-style="" dominant-baseline="" text-anchor="start" type="comment">Sheet:</text></g><g><text x="1069" y="771" fill="#0000FF" font-family="Verdana" font-size="9pt" font-weight="" font-style="" dominant-baseline="" text-anchor="start" type="comment">1/1</text></g><g><text x="744" y="791" fill="#880000" font-family="Verdana" font-size="8pt" font-weight="" font-style="" dominant-baseline="" text-anchor="start" type="comment">EasyEDA V4.10.3</text></g><g><text x="944" y="791" fill="#880000" font-family="Verdana" font-size="8pt" font-weight="" font-style="" dominant-baseline="" text-anchor="start" type="comment">Drawn By:</text></g><g><text x="1009" y="791" fill="#0000FF" font-family="Verdana" font-size="9pt" font-weight="" font-style="" dominant-baseline="" text-anchor="start" type="comment">Your Name</text></g></g><g><g><text x="593.875" y="187" font-family="Arial" font-size="7pt" fill="#000080" text-anchor="start">NodeMCU_V1_ESP12E</text></g><g><text x="593.8828125" y="178" font-family="Arial" font-size="7pt" fill="#000080" text-anchor="start">U1</text></g><g><path d="M 520 250 h 20" fill="none" stroke="#880000" stroke-width="1"/><text x="542" y="253" font-family="Verdana" font-size="7pt" fill="#0000FF" text-anchor="start">3.3V</text><text x="535" y="249" font-family="Verdana" font-size="7pt" fill="#0000FF" text-anchor="end">1</text><circle cx="537" cy="250" r="3" stroke="#880000" fill="none" stroke-width="1" display="none"/><path d="M 540 253 L 543 250 L 540 247" fill="none" stroke="#880000" stroke-width="1" display="none"/></g><g><path d="M 520 270 h 20" fill="none" stroke="#880000" stroke-width="1"/><text x="542" y="273" font-family="Verdana" font-size="7pt" fill="#0000FF" text-anchor="start">GND</text><text x="535" y="269" font-family="Verdana" font-size="7pt" fill="#0000FF" text-anchor="end">2</text><circle cx="537" cy="270" r="3" stroke="#880000" fill="none" stroke-width="1" display="none"/><path d="M 540 273 L 543 270 L 540 267" fill="none" stroke="#880000" stroke-width="1" display="none"/></g><g><path d="M 520 290 h 20" fill="none" stroke="#880000" stroke-width="1"/><text x="542" y="293" font-family="Verdana" font-size="7pt" fill="#0000FF" text-anchor="start">TX</text><text x="535" y="289" font-family="Verdana" font-size="7pt" fill="#0000FF" text-anchor="end">3</text><circle cx="537" cy="290" r="3" stroke="#880000" fill="none" stroke-width="1" display="none"/><path d="M 540 293 L 543 290 L 540 287" fill="none" stroke="#880000" stroke-width="1" display="none"/></g><g><path d="M 520 310 h 20" fill="none" stroke="#880000" stroke-width="1"/><text x="542" y="313" font-family="Verdana" font-size="7pt" fill="#0000FF" text-anchor="start">RX</text><text x="535" y="309" font-family="Verdana" font-size="7pt" fill="#0000FF" text-anchor="end">4</text><circle cx="537" cy="310" r="3" stroke="#880000" fill="none" stroke-width="1" display="none"/><path d="M 540 313 L 543 310 L 540 307" fill="none" stroke="#880000" stroke-width="1" display="none"/></g><g><path d="M 520 330 h 20" fill="none" stroke="#880000" stroke-width="1"/><text x="542" y="333" font-family="Verdana" font-size="7pt" fill="#0000FF" text-anchor="start">D8</text><text x="535" y="329" font-family="Verdana" font-size="7pt" fill="#0000FF" text-anchor="end">5</text><circle cx="537" cy="330" r="3" stroke="#880000" fill="none" stroke-width="1" display="none"/><path d="M 540 333 L 543 330 L 540 327" fill="none" stroke="#880000" stroke-width="1" display="none"/></g><g><path d="M 520 350 h 20" fill="none" stroke="#880000" stroke-width="1"/><text x="542" y="353" font-family="Verdana" font-size="7pt" fill="#0000FF" text-anchor="start">D7</text><text x="535" y="349" font-family="Verdana" font-size="7pt" fill="#0000FF" text-anchor="end">6</text><circle cx="537" cy="350" r="3" stroke="#880000" fill="none" stroke-width="1" display="none"/><path d="M 540 353 L 543 350 L 540 347" fill="none" stroke="#880000" stroke-width="1" display="none"/></g><g><path d="M 520 370 h 20" fill="none" stroke="#880000" stroke-width="1"/><text x="542" y="373" font-family="Verdana" font-size="7pt" fill="#0000FF" text-anchor="start">D6</text><text x="535" y="369" font-family="Verdana" font-size="7pt" fill="#0000FF" text-anchor="end">7</text><circle cx="537" cy="370" r="3" stroke="#880000" fill="none" stroke-width="1" display="none"/><path d="M 540 373 L 543 370 L 540 367" fill="none" stroke="#880000" stroke-width="1" display="none"/></g><g><path d="M 520 390 h 20" fill="none" stroke="#880000" stroke-width="1"/><text x="542" y="393" font-family="Verdana" font-size="7pt" fill="#0000FF" text-anchor="start">D5</text><text x="535" y="389" font-family="Verdana" font-size="7pt" fill="#0000FF" text-anchor="end">8</text><circle cx="537" cy="390" r="3" stroke="#880000" fill="none" stroke-width="1" display="none"/><path d="M 540 393 L 543 390 L 540 387" fill="none" stroke="#880000" stroke-width="1" display="none"/></g><g><path d="M 520 410 h 20" fill="none" stroke="#880000" stroke-width="1"/><text x="542" y="413" font-family="Verdana" font-size="7pt" fill="#0000FF" text-anchor="start">GND</text><text x="535" y="409" font-family="Verdana" font-size="7pt" fill="#0000FF" text-anchor="end">9</text><circle cx="537" cy="410" r="3" stroke="#880000" fill="none" stroke-width="1" display="none"/><path d="M 540 413 L 543 410 L 540 407" fill="none" stroke="#880000" stroke-width="1" display="none"/></g><g><path d="M 520 430 h 20" fill="none" stroke="#880000" stroke-width="1"/><text x="542" y="433" font-family="Verdana" font-size="7pt" fill="#0000FF" text-anchor="start">3.3V</text><text x="535" y="429" font-family="Verdana" font-size="7pt" fill="#0000FF" text-anchor="end">10</text><circle cx="537" cy="430" r="3" stroke="#880000" fill="none" stroke-width="1" display="none"/><path d="M 540 433 L 543 430 L 540 427" fill="none" stroke="#880000" stroke-width="1" display="none"/></g><g><path d="M 520 450 h 20" fill="none" stroke="#880000" stroke-width="1"/><text x="542" y="453" font-family="Verdana" font-size="7pt" fill="#0000FF" text-anchor="start">D4</text><text x="535" y="449" font-family="Verdana" font-size="7pt" fill="#0000FF" text-anchor="end">11</text><circle cx="537" cy="450" r="3" stroke="#880000" fill="none" stroke-width="1" display="none"/><path d="M 540 453 L 543 450 L 540 447" fill="none" stroke="#880000" stroke-width="1" display="none"/></g><g><path d="M 520 470 h 20" fill="none" stroke="#880000" stroke-width="1"/><text x="542" y="473" font-family="Verdana" font-size="7pt" fill="#0000FF" text-anchor="start">D3</text><text x="535" y="469" font-family="Verdana" font-size="7pt" fill="#0000FF" text-anchor="end">12</text><circle cx="537" cy="470" r="3" stroke="#880000" fill="none" stroke-width="1" display="none"/><path d="M 540 473 L 543 470 L 540 467" fill="none" stroke="#880000" stroke-width="1" display="none"/></g><g><path d="M 520 490 h 20" fill="none" stroke="#880000" stroke-width="1"/><text x="542" y="493" font-family="Verdana" font-size="7pt" fill="#0000FF" text-anchor="start">D2</text><text x="535" y="489" font-family="Verdana" font-size="7pt" fill="#0000FF" text-anchor="end">13</text><circle cx="537" cy="490" r="3" stroke="#880000" fill="none" stroke-width="1" display="none"/><path d="M 540 493 L 543 490 L 540 487" fill="none" stroke="#880000" stroke-width="1" display="none"/></g><g><path d="M 520 510 h 20" fill="none" stroke="#880000" stroke-width="1"/><text x="542" y="513" font-family="Verdana" font-size="7pt" fill="#0000FF" text-anchor="start">D1</text><text x="535" y="509" font-family="Verdana" font-size="7pt" fill="#0000FF" text-anchor="end">14</text><circle cx="537" cy="510" r="3" stroke="#880000" fill="none" stroke-width="1" display="none"/><path d="M 540 513 L 543 510 L 540 507" fill="none" stroke="#880000" stroke-width="1" display="none"/></g><g><path d="M 520 530 h 20" fill="none" stroke="#880000" stroke-width="1"/><text x="542" y="533" font-family="Verdana" font-size="7pt" fill="#0000FF" text-anchor="start">D0</text><text x="535" y="529" font-family="Verdana" font-size="7pt" fill="#0000FF" text-anchor="end">15</text><circle cx="537" cy="530" r="3" stroke="#880000" fill="none" stroke-width="1" display="none"/><path d="M 540 533 L 543 530 L 540 527" fill="none" stroke="#880000" stroke-width="1" display="none"/></g><g><path d="M 680 530 h -20" fill="none" stroke="#880000" stroke-width="1"/><text x="658" y="533" font-family="Verdana" font-size="7pt" fill="#0000FF" text-anchor="end">A0</text><text x="665" y="529" font-family="Verdana" font-size="7pt" fill="#0000FF" text-anchor="start">16</text><circle cx="663" cy="530" r="3" stroke="#880000" fill="none" stroke-width="1" display="none"/><path d="M 660 527 L 657 530 L 660 533" fill="none" stroke="#880000" stroke-width="1" display="none"/></g><g><path d="M 680 510 h -20" fill="none" stroke="#880000" stroke-width="1"/><text x="658" y="513" font-family="Verdana" font-size="7pt" fill="#0000FF" text-anchor="end">RSV(Don't Use)</text><text x="665" y="509" font-family="Verdana" font-size="7pt" fill="#0000FF" text-anchor="start">17</text><circle cx="663" cy="510" r="3" stroke="#880000" fill="none" stroke-width="1" display="none"/><path d="M 660 507 L 657 510 L 660 513" fill="none" stroke="#880000" stroke-width="1" display="none"/></g><g><path d="M 680 490 h -20" fill="none" stroke="#880000" stroke-width="1"/><text x="658" y="493" font-family="Verdana" font-size="7pt" fill="#0000FF" text-anchor="end">RSV(Don't Use)</text><text x="665" y="489" font-family="Verdana" font-size="7pt" fill="#0000FF" text-anchor="start">18</text><circle cx="663" cy="490" r="3" stroke="#880000" fill="none" stroke-width="1" display="none"/><path d="M 660 487 L 657 490 L 660 493" fill="none" stroke="#880000" stroke-width="1" display="none"/></g><g><path d="M 680 470 h -20" fill="none" stroke="#880000" stroke-width="1"/><text x="658" y="473" font-family="Verdana" font-size="7pt" fill="#0000FF" text-anchor="end">SD3</text><text x="665" y="469" font-family="Verdana" font-size="7pt" fill="#0000FF" text-anchor="start">19</text><circle cx="663" cy="470" r="3" stroke="#880000" fill="none" stroke-width="1" display="none"/><path d="M 660 467 L 657 470 L 660 473" fill="none" stroke="#880000" stroke-width="1" display="none"/></g><g><path d="M 680 450 h -20" fill="none" stroke="#880000" stroke-width="1"/><text x="658" y="453" font-family="Verdana" font-size="7pt" fill="#0000FF" text-anchor="end">SD2</text><text x="665" y="449" font-family="Verdana" font-size="7pt" fill="#0000FF" text-anchor="start">20</text><circle cx="663" cy="450" r="3" stroke="#880000" fill="none" stroke-width="1" display="none"/><path d="M 660 447 L 657 450 L 660 453" fill="none" stroke="#880000" stroke-width="1" display="none"/></g><g><path d="M 680 430 h -20" fill="none" stroke="#880000" stroke-width="1"/><text x="658" y="433" font-family="Verdana" font-size="7pt" fill="#0000FF" text-anchor="end">SD1</text><text x="665" y="429" font-family="Verdana" font-size="7pt" fill="#0000FF" text-anchor="start">21</text><circle cx="663" cy="430" r="3" stroke="#880000" fill="none" stroke-width="1" display="none"/><path d="M 660 427 L 657 430 L 660 433" fill="none" stroke="#880000" stroke-width="1" display="none"/></g><g><path d="M 680 410 h -20" fill="none" stroke="#880000" stroke-width="1"/><text x="658" y="413" font-family="Verdana" font-size="7pt" fill="#0000FF" text-anchor="end">CMD</text><text x="665" y="409" font-family="Verdana" font-size="7pt" fill="#0000FF" text-anchor="start">22</text><circle cx="663" cy="410" r="3" stroke="#880000" fill="none" stroke-width="1" display="none"/><path d="M 660 407 L 657 410 L 660 413" fill="none" stroke="#880000" stroke-width="1" display="none"/></g><g><path d="M 680 390 h -20" fill="none" stroke="#880000" stroke-width="1"/><text x="658" y="393" font-family="Verdana" font-size="7pt" fill="#0000FF" text-anchor="end">SD0</text><text x="665" y="389" font-family="Verdana" font-size="7pt" fill="#0000FF" text-anchor="start">23</text><circle cx="663" cy="390" r="3" stroke="#880000" fill="none" stroke-width="1" display="none"/><path d="M 660 387 L 657 390 L 660 393" fill="none" stroke="#880000" stroke-width="1" display="none"/></g><g><path d="M 680 370 h -20" fill="none" stroke="#880000" stroke-width="1"/><text x="658" y="373" font-family="Verdana" font-size="7pt" fill="#0000FF" text-anchor="end">CLK</text><text x="665" y="369" font-family="Verdana" font-size="7pt" fill="#0000FF" text-anchor="start">24</text><circle cx="663" cy="370" r="3" stroke="#880000" fill="none" stroke-width="1" display="none"/><path d="M 660 367 L 657 370 L 660 373" fill="none" stroke="#880000" stroke-width="1" display="none"/></g><g><path d="M 680 350 h -20" fill="none" stroke="#880000" stroke-width="1"/><text x="658" y="353" font-family="Verdana" font-size="7pt" fill="#0000FF" text-anchor="end">GND</text><text x="665" y="349" font-family="Verdana" font-size="7pt" fill="#0000FF" text-anchor="start">25</text><circle cx="663" cy="350" r="3" stroke="#880000" fill="none" stroke-width="1" display="none"/><path d="M 660 347 L 657 350 L 660 353" fill="none" stroke="#880000" stroke-width="1" display="none"/></g><g><path d="M 680 330 h -20" fill="none" stroke="#880000" stroke-width="1"/><text x="658" y="333" font-family="Verdana" font-size="7pt" fill="#0000FF" text-anchor="end">3.3V</text><text x="665" y="329" font-family="Verdana" font-size="7pt" fill="#0000FF" text-anchor="start">26</text><circle cx="663" cy="330" r="3" stroke="#880000" fill="none" stroke-width="1" display="none"/><path d="M 660 327 L 657 330 L 660 333" fill="none" stroke="#880000" stroke-width="1" display="none"/></g><g><path d="M 680 310 h -20" fill="none" stroke="#880000" stroke-width="1"/><text x="658" y="313" font-family="Verdana" font-size="7pt" fill="#0000FF" text-anchor="end">EN</text><text x="665" y="309" font-family="Verdana" font-size="7pt" fill="#0000FF" text-anchor="start">27</text><circle cx="663" cy="310" r="3" stroke="#880000" fill="none" stroke-width="1" display="none"/><path d="M 660 307 L 657 310 L 660 313" fill="none" stroke="#880000" stroke-width="1" display="none"/></g><g><path d="M 680 290 h -20" fill="none" stroke="#880000" stroke-width="1"/><text x="658" y="293" font-family="Verdana" font-size="7pt" fill="#0000FF" text-anchor="end">RST</text><text x="665" y="289" font-family="Verdana" font-size="7pt" fill="#0000FF" text-anchor="start">28</text><circle cx="663" cy="290" r="3" stroke="#880000" fill="none" stroke-width="1" display="none"/><path d="M 660 287 L 657 290 L 660 293" fill="none" stroke="#880000" stroke-width="1" display="none"/></g><g><path d="M 680 270 h -20" fill="none" stroke="#880000" stroke-width="1"/><text x="658" y="273" font-family="Verdana" font-size="7pt" fill="#0000FF" text-anchor="end">GND</text><text x="665" y="269" font-family="Verdana" font-size="7pt" fill="#0000FF" text-anchor="start">29</text><circle cx="663" cy="270" r="3" stroke="#880000" fill="none" stroke-width="1" display="none"/><path d="M 660 267 L 657 270 L 660 273" fill="none" stroke="#880000" stroke-width="1" display="none"/></g><g><path d="M 680 250 h -20" fill="none" stroke="#880000" stroke-width="1"/><text x="658" y="253" font-family="Verdana" font-size="7pt" fill="#0000FF" text-anchor="end">Vin</text><text x="665" y="249" font-family="Verdana" font-size="7pt" fill="#0000FF" text-anchor="start">30</text><circle cx="663" cy="250" r="3" stroke="#880000" fill="none" stroke-width="1" display="none"/><path d="M 660 247 L 657 250 L 660 253" fill="none" stroke="#880000" stroke-width="1" display="none"/></g><rect x="540" y="190" width="120" height="360" stroke="#000000" stroke-width="1" fill="none"/><g><text x="570" y="540" fill="#0000FF" font-family="Verdana" font-size="9pt" font-weight="" font-style="" dominant-baseline="" text-anchor="start" type="comment">NodeMCU</text></g><rect x="570" y="190" width="60" height="50" stroke="#000000" stroke-width="1" fill="none"/><rect x="580" y="210" width="40" height="30" stroke="#000000" stroke-width="1" fill="none"/></g><g><g><text x="395.5" y="383.5" font-family="Arial" font-size="7pt" fill="#000080" text-anchor="start" dy="-1">GY-521</text></g><g><text x="394.875" y="372" font-family="Arial" font-size="7pt" fill="#000080" text-anchor="start">G1</text></g><rect x="365" y="270" width="50" height="90" stroke="#000000" stroke-width="1" fill="none"/><g><path d="M 435 280 h -20" fill="none" stroke="#880000" stroke-width="1"/><text x="413" y="283" font-family="Verdana" font-size="7pt" fill="#0000FF" text-anchor="end">VCC</text><text x="420" y="279" font-family="Verdana" font-size="7pt" fill="#0000FF" text-anchor="start">1</text><circle cx="418" cy="280" r="3" stroke="#880000" fill="none" stroke-width="1" display="none"/><path d="M 415 283 L 412 280 L 415 277" fill="none" stroke="#880000" stroke-width="1" display="none"/></g><g><path d="M 435 290 h -20" fill="none" stroke="#880000" stroke-width="1"/><text x="413" y="293" font-family="Verdana" font-size="7pt" fill="#0000FF" text-anchor="end">GND</text><text x="420" y="289" font-family="Verdana" font-size="7pt" fill="#0000FF" text-anchor="start">2</text><circle cx="418" cy="290" r="3" stroke="#880000" fill="none" stroke-width="1" display="none"/><path d="M 415 293 L 412 290 L 415 287" fill="none" stroke="#880000" stroke-width="1" display="none"/></g><g><path d="M 435 300 h -20" fill="none" stroke="#880000" stroke-width="1"/><text x="413" y="303" font-family="Verdana" font-size="7pt" fill="#0000FF" text-anchor="end">SCL</text><text x="420" y="299" font-family="Verdana" font-size="7pt" fill="#0000FF" text-anchor="start">3</text><circle cx="418" cy="300" r="3" stroke="#880000" fill="none" stroke-width="1" display="none"/><path d="M 415 303 L 412 300 L 415 297" fill="none" stroke="#880000" stroke-width="1" display="none"/></g><g><path d="M 435 310 h -20" fill="none" stroke="#880000" stroke-width="1"/><text x="413" y="313" font-family="Verdana" font-size="7pt" fill="#0000FF" text-anchor="end">SDA</text><text x="420" y="309" font-family="Verdana" font-size="7pt" fill="#0000FF" text-anchor="start">4</text><circle cx="418" cy="310" r="3" stroke="#880000" fill="none" stroke-width="1" display="none"/><path d="M 415 313 L 412 310 L 415 307" fill="none" stroke="#880000" stroke-width="1" display="none"/></g><g><path d="M 435 320 h -20" fill="none" stroke="#880000" stroke-width="1"/><text x="413" y="323" font-family="Verdana" font-size="7pt" fill="#0000FF" text-anchor="end">XDA</text><text x="420" y="319" font-family="Verdana" font-size="7pt" fill="#0000FF" text-anchor="start">5</text><circle cx="418" cy="320" r="3" stroke="#880000" fill="none" stroke-width="1" display="none"/><path d="M 415 323 L 412 320 L 415 317" fill="none" stroke="#880000" stroke-width="1" display="none"/></g><g><path d="M 435 330 h -20" fill="none" stroke="#880000" stroke-width="1"/><text x="413" y="333" font-family="Verdana" font-size="7pt" fill="#0000FF" text-anchor="end">XCL</text><text x="420" y="329" font-family="Verdana" font-size="7pt" fill="#0000FF" text-anchor="start">6</text><circle cx="418" cy="330" r="3" stroke="#880000" fill="none" stroke-width="1" display="none"/><path d="M 415 333 L 412 330 L 415 327" fill="none" stroke="#880000" stroke-width="1" display="none"/></g><g><path d="M 435 340 h -20" fill="none" stroke="#880000" stroke-width="1"/><text x="413" y="343" font-family="Verdana" font-size="7pt" fill="#0000FF" text-anchor="end">AD0</text><text x="420" y="339" font-family="Verdana" font-size="7pt" fill="#0000FF" text-anchor="start">7</text><circle cx="418" cy="340" r="3" stroke="#880000" fill="none" stroke-width="1" display="none"/><path d="M 415 343 L 412 340 L 415 337" fill="none" stroke="#880000" stroke-width="1" display="none"/></g><g><path d="M 435 350 h -20" fill="none" stroke="#880000" stroke-width="1"/><text x="413" y="353" font-family="Verdana" font-size="7pt" fill="#0000FF" text-anchor="end">INT</text><text x="420" y="349" font-family="Verdana" font-size="7pt" fill="#0000FF" text-anchor="start">8</text><circle cx="418" cy="350" r="3" stroke="#880000" fill="none" stroke-width="1" display="none"/><path d="M 415 353 L 412 350 L 415 347" fill="none" stroke="#880000" stroke-width="1" display="none"/></g></g><polyline points="435 290 490 290 490 270 520 270" stroke="#008800" stroke-width="1" fill="none"/><polyline points="435 280 480 280 480 250 520 250" stroke="#008800" stroke-width="1" fill="none"/><polyline points="435 340 450 340 450 290" stroke="#008800" stroke-width="1" fill="none"/><g><circle cx="450" cy="290" r="2.5" fill="#CC0000" stroke-width="1"/></g><polyline points="435 300 490 300 490 490 520 490" stroke="#008800" stroke-width="1" fill="none"/><polyline points="435 310 480 310 480 510 520 510" stroke="#008800" stroke-width="1" fill="none"/><g eelibtitle="AXIAL-0.3 (1/8W) " package-default="AXIAL-0.3"><g><text x="468.875" y="523" font-family="Arial" font-size="7pt" fill="#000080" text-anchor="start">69 ohm</text></g><g><text x="468.8828125" y="514" font-family="Arial" font-size="7pt" fill="#000080" text-anchor="start">R1</text></g><rect x="465" y="526" width="20" height="8" stroke="#A00000" stroke-width="1" fill="none"/><g><path d="M 485 530 h 10" fill="none" stroke="#800" stroke-width="1"/><text x="481" y="530" font-family="Verdana" font-size="7pt" fill="#800" text-anchor="end" display="none">2</text><text x="489" y="526" font-family="Verdana" font-size="7pt" fill="#800" text-anchor="start" display="none">2</text><circle cx="468" cy="510" r="3" stroke="#800" fill="none" stroke-width="1" display="none"/><path d="M 465 507 L 462 510 L 465 513" fill="none" stroke="#800" stroke-width="1" display="none"/></g><g><path d="M 465 530 h -10" fill="none" stroke="#800" stroke-width="1"/><text x="469" y="530" font-family="Verdana" font-size="7pt" fill="#800" text-anchor="start" display="none">1</text><text x="461" y="526" font-family="Verdana" font-size="7pt" fill="#800" text-anchor="end" display="none">1</text><circle cx="442" cy="510" r="3" stroke="#800" fill="none" stroke-width="1" display="none"/><path d="M 445 513 L 448 510 L 445 507" fill="none" stroke="#800" stroke-width="1" display="none"/></g></g><g eelibtitle="LED(TH)3mm" package-default="LED-3MM/2.54"><g display="none"><text x="421.8125" y="506" font-family="Arial" font-size="7pt" fill="#000080" text-anchor="end">204-10UYC/S530-A3</text></g><g><text x="421.8203125" y="497" font-family="Arial" font-size="7pt" fill="#000080" text-anchor="end">LED1</text></g><g><path d="M 435 530 h -20" fill="none" stroke="#000000" stroke-width="1"/><text x="410" y="533" font-family="Verdana" font-size="7pt" fill="#000000" text-anchor="end" display="none">A</text><text x="420" y="529" font-family="Verdana" font-size="7pt" fill="#000000" text-anchor="start" display="none">1</text><circle cx="418" cy="530" r="3" stroke="#000000" fill="none" stroke-width="1" display="none"/><path d="M 415 533 L 412 530 L 415 527" fill="none" stroke="#000000" stroke-width="1" display="none"/></g><g><path d="M 385 530 h 20" fill="none" stroke="#000000" stroke-width="1"/><text x="410" y="533" font-family="Verdana" font-size="7pt" fill="#000000" text-anchor="start" display="none">C</text><text x="400" y="529" font-family="Verdana" font-size="7pt" fill="#000000" text-anchor="end" display="none">2</text><circle cx="402" cy="530" r="3" stroke="#000000" fill="none" stroke-width="1" display="none"/><path d="M 405 527 L 408 530 L 405 533" fill="none" stroke="#000000" stroke-width="1" display="none"/></g><polygon points="415 540 405 530 415 520" stroke="#880000" stroke-width="1" fill="#EFEFEF" stroke-linecap="round"/><polyline points="401 520 394 513" stroke="#880000" stroke-width="1" fill="none" stroke-linecap="round"/><polyline points="405 516 398 509" stroke="#880000" stroke-width="1" fill="none" stroke-linecap="round"/><polygon points="394 513 398 515 396 517" stroke="#880000" stroke-width="1" fill="#EFEFEF" stroke-linecap="round"/><polygon points="398 509 402 511 400 513" stroke="#880000" stroke-width="1" fill="#EFEFEF" stroke-linecap="round"/><polyline points="405 520 405 540" stroke="#880000" stroke-width="1" fill="none" stroke-linecap="round"/></g><polyline points="520 530 495 530" stroke="#008800" stroke-width="1" fill="none"/><polyline points="455 530 435 530" stroke="#008800" stroke-width="1" fill="none"/><g><text x="349" y="527" font-family="Times New Roman" font-size="9pt" fill="#000080" text-anchor="start" display="none">GND</text><polyline points="360 550 360 540" stroke="#000000" stroke-width="1" fill="none"/><polyline points="350 550 369 550" stroke="#000000" stroke-width="1" fill="none"/><polyline points="354 552 367 552" stroke="#000000" stroke-width="1" fill="none"/><polyline points="356 554 363 554" stroke="#000000" stroke-width="1" fill="none"/><polyline points="359 556 361 556" stroke="#000000" stroke-width="1" fill="none"/></g><polyline points="385 530 360 530 360 540" stroke="#008800" stroke-width="1" fill="none"/><g><g><text x="714" y="193.75" font-family="Arial" font-size="7pt" fill="#000080" text-anchor="start">-SWITCH</text></g><g><text x="714.0078125" y="202.75" font-family="Arial" font-size="7pt" fill="#000080" text-anchor="start">U2</text></g><polyline points="710 200 705 200" stroke="#8D2323" stroke-width="1" fill="none" stroke-linecap="round"/><polyline points="705 200 700 200" stroke="#8D2323" stroke-width="1" fill="none" stroke-linecap="round"/><polyline points="705 200 705 195" stroke="#8D2323" stroke-width="1" fill="none" stroke-linecap="round"/><ellipse cx="710" cy="205" rx="1" ry="1" stroke="#8D2323" stroke-width="1" fill="none"/><ellipse cx="700" cy="205" rx="1" ry="1" stroke="#8D2323" stroke-width="1" fill="none"/><ellipse cx="690" cy="205" rx="1" ry="1" stroke="#8D2323" stroke-width="1" fill="none"/><g><path d="M 710 215 v -10" fill="none" stroke="#8D2323" stroke-width="1"/><text x="713" y="202" font-family="Verdana" font-size="7pt" fill="#8D2323" text-anchor="start" display="none" transform="rotate(270,713,202)">1</text><text x="709" y="211" font-family="Verdana" font-size="7pt" fill="#8D2323" text-anchor="end" display="none" transform="rotate(270,709,211)">P$1</text><circle cx="710" cy="208" r="3" stroke="#8D2323" fill="none" stroke-width="1" display="none"/><path d="M 707 205 L 710 202 L 713 205" fill="none" stroke="#8D2323" stroke-width="1" display="none"/></g><g><path d="M 700 215 v -10" fill="none" stroke="#8D2323" stroke-width="1"/><text x="703" y="202" font-family="Verdana" font-size="7pt" fill="#8D2323" text-anchor="start" display="none" transform="rotate(270,703,202)">2</text><text x="699" y="211" font-family="Verdana" font-size="7pt" fill="#8D2323" text-anchor="end" display="none" transform="rotate(270,699,211)">P$2</text><circle cx="700" cy="208" r="3" stroke="#8D2323" fill="none" stroke-width="1" display="none"/><path d="M 697 205 L 700 202 L 703 205" fill="none" stroke="#8D2323" stroke-width="1" display="none"/></g><g><path d="M 690 215 v -10" fill="none" stroke="#8D2323" stroke-width="1"/><text x="693" y="202" font-family="Verdana" font-size="7pt" fill="#8D2323" text-anchor="start" display="none" transform="rotate(270,693,202)">3</text><text x="689" y="211" font-family="Verdana" font-size="7pt" fill="#8D2323" text-anchor="end" display="none" transform="rotate(270,689,211)">P$3</text><circle cx="690" cy="208" r="3" stroke="#8D2323" fill="none" stroke-width="1" display="none"/><path d="M 687 205 L 690 202 L 693 205" fill="none" stroke="#8D2323" stroke-width="1" display="none"/></g><g><text x="712" y="211" fill="#8D2323" font-family="Verdana" font-size="3" font-weight=" " font-style=" " dominant-baseline=" " type="" transform="rotate(90,712,211)" text-anchor="end">NC</text></g><g><text x="692" y="211" fill="#8D2323" font-family="Verdana" font-size="3" font-weight=" " font-style=" " dominant-baseline=" " type="" transform="rotate(90,692,211)" text-anchor="end">NO</text></g><g><text x="703" y="212" fill="#8D2323" font-family="Verdana" font-size="2" font-weight=" " font-style=" " dominant-baseline=" " type="" transform="rotate(90,703,212)" text-anchor="end">COM</text></g></g><g><g><text x="720" y="248.5" font-family="Arial" font-size="7pt" fill="#000080" text-anchor="start" dy="-1">BATTERY</text></g><g><text x="720" y="238.5" font-family="Arial" font-size="7pt" fill="#000080" text-anchor="start" dy="-1">BAT1</text></g><polyline points="725 255 725 285" stroke="#8D2323" stroke-width="2" fill="none" stroke-linecap="round"/><polyline points="730 265 730 275" stroke="#8D2323" stroke-width="2" fill="none" stroke-linecap="round"/><polyline points="735 255 735 285" stroke="#8D2323" stroke-width="2" fill="none" stroke-linecap="round"/><polyline points="740 265 740 275" stroke="#8D2323" stroke-width="2" fill="none" stroke-linecap="round"/><polyline points="720 270 724 270" stroke="#8D2323" stroke-width="1" fill="none" stroke-linecap="round"/><g><path d="M 750 270 h -10" fill="none" stroke="#8D2323" stroke-width="1"/><text x="737" y="273" font-family="Verdana" font-size="7pt" fill="#8D2323" text-anchor="end" display="none">-</text><text x="746" y="269" font-family="Verdana" font-size="7pt" fill="#8D2323" text-anchor="start" display="none">-</text><circle cx="743" cy="270" r="3" stroke="#8D2323" fill="none" stroke-width="1" display="none"/><path d="M 740 267 L 737 270 L 740 273" fill="none" stroke="#8D2323" stroke-width="1" display="none"/></g><g><path d="M 710 270 h 10" fill="none" stroke="#8D2323" stroke-width="1"/><text x="723" y="273" font-family="Verdana" font-size="7pt" fill="#8D2323" text-anchor="start" display="none">+</text><text x="714" y="269" font-family="Verdana" font-size="7pt" fill="#8D2323" text-anchor="end" display="none">+</text><circle cx="717" cy="270" r="3" stroke="#8D2323" fill="none" stroke-width="1" display="none"/><path d="M 720 273 L 723 270 L 720 267" fill="none" stroke="#8D2323" stroke-width="1" display="none"/></g></g><polyline points="710 270 680 270" stroke="#008800" stroke-width="1" fill="none"/><polyline points="700 215 700 250 750 250 750 270" stroke="#008800" stroke-width="1" fill="none"/><polyline points="690 215 690 250 680 250" stroke="#008800" stroke-width="1" fill="none"/><g><text x="689" y="267" font-family="Times New Roman" font-size="9pt" fill="#000080" text-anchor="start" display="none">GND</text><polyline points="700 290 700 280" stroke="#000000" stroke-width="1" fill="none"/><polyline points="690 290 709 290" stroke="#000000" stroke-width="1" fill="none"/><polyline points="694 292 707 292" stroke="#000000" stroke-width="1" fill="none"/><polyline points="696 294 703 294" stroke="#000000" stroke-width="1" fill="none"/><polyline points="699 296 701 296" stroke="#000000" stroke-width="1" fill="none"/></g><polyline points="700 280 700 270" stroke="#008800" stroke-width="1" fill="none"/><g><circle cx="700" cy="270" r="2.5" fill="#CC0000" stroke-width="1"/></g></g></svg>